<?xml version="1.0" encoding="UTF-8"?>
<svg xmlns="http://www.w3.org/2000/svg" width="24" height="42" viewBox="0 0 24 42" fill="none">
  <path d="M20.8356 0H3.16444C1.47324 0 0.108032 1.37133 0.108032 3.05947V38.9436C0.108032 40.6302 1.47324 42 3.16444 42H20.8356C22.5237 42 23.892 40.6302 23.892 38.9436V3.05947C23.892 1.37133 22.5237 0 20.8356 0ZM7.63963 1.85803H16.3635C16.5839 1.85803 16.7629 2.18709 16.7629 2.5942C16.7629 3.00131 16.5839 3.3319 16.3635 3.3319H7.63963C7.4177 3.3319 7.2417 3.00131 7.2417 2.5942C7.2417 2.18709 7.4177 1.85803 7.63963 1.85803ZM12.0016 38.9803C10.9256 38.9803 10.0502 38.1049 10.0502 37.0274C10.0502 35.9499 10.9256 35.0775 12.0016 35.0775C13.0744 35.0775 13.9499 35.9499 13.9499 37.0274C13.9499 38.1049 13.0744 38.9803 12.0016 38.9803ZM21.6024 32.2936H2.39919V5.16238H21.6024V32.2936Z" fill="white"></path>
</svg>
