<svg xmlns="http://www.w3.org/2000/svg" width="20" height="20" viewBox="0 0 20 20" fill="none">
                                            <path d="M16.6666 12.5025C16.6666 16.0479 14.4848 17.6036 12.7989 18.1283C12.4394 18.2401 12.2031 17.821 12.4182 17.512C13.1518 16.4576 13.9999 14.849 13.9999 13.3358C13.9999 11.7103 12.6299 9.7912 11.56 8.60754C11.3154 8.33693 10.8888 8.51599 10.8755 8.88051C10.8313 10.0882 10.6407 11.7039 9.81894 12.9702C9.68667 13.1741 9.40588 13.191 9.25517 13.0004C8.99841 12.6756 8.74165 12.2745 8.48489 11.9576C8.34659 11.7869 8.09662 11.7846 7.93709 11.9356C7.31513 12.5245 6.44436 13.4429 6.44436 14.5858C6.44436 15.4102 6.83724 16.4363 7.24223 17.2308C7.42614 17.5917 7.08495 18.0149 6.73444 17.812C5.20457 16.9265 3.33325 15.0915 3.33325 12.5025C3.33325 9.88041 6.92516 6.24814 8.29663 2.81654C8.51304 2.27505 9.17999 2.02061 9.64387 2.37397C12.4532 4.51402 16.6666 8.65088 16.6666 12.5025Z" fill="white" stroke="white" stroke-width="0.833333"></path>
                                        </svg>
                                        