<?xml version="1.0" encoding="UTF-8"?>
<!DOCTYPE svg PUBLIC "-//W3C//DTD SVG 1.1//EN" "http://www.w3.org/Graphics/SVG/1.1/DTD/svg11.dtd">
<svg xmlns="http://www.w3.org/2000/svg" version="1.1" width="200px" height="200px" style="shape-rendering:geometricPrecision; text-rendering:geometricPrecision; image-rendering:optimizeQuality; fill-rule:evenodd; clip-rule:evenodd" xmlns:xlink="http://www.w3.org/1999/xlink">
<g><path style="opacity:0.008" fill="#43443f" d="M -0.5,-0.5 C -0.166667,-0.5 0.166667,-0.5 0.5,-0.5C 0.31468,0.170143 -0.0186536,0.170143 -0.5,-0.5 Z"/></g>
<g><path style="opacity:0.017" fill="#43443f" d="M 5.5,-0.5 C 6.5,-0.5 7.5,-0.5 8.5,-0.5C 5.83333,2.83333 2.83333,5.83333 -0.5,8.5C -0.5,7.5 -0.5,6.5 -0.5,5.5C 1.83333,3.83333 3.83333,1.83333 5.5,-0.5 Z"/></g>
<g><path style="opacity:0.018" fill="#43443f" d="M 13.5,-0.5 C 14.5,-0.5 15.5,-0.5 16.5,-0.5C 10.8604,5.13962 5.19371,10.8063 -0.5,16.5C -0.5,15.5 -0.5,14.5 -0.5,13.5C 4.5,9.16667 9.16667,4.5 13.5,-0.5 Z"/></g>
<g><path style="opacity:0.023" fill="#43443f" d="M 20.5,-0.5 C 21.5,-0.5 22.5,-0.5 23.5,-0.5C 15.8333,7.83333 7.83333,15.8333 -0.5,23.5C -0.5,22.8333 -0.5,22.1667 -0.5,21.5C 7.20197,14.7989 14.202,7.4656 20.5,-0.5 Z"/></g>
<g><path style="opacity:0.018" fill="#43443f" d="M 28.5,-0.5 C 29.5,-0.5 30.5,-0.5 31.5,-0.5C 21.1667,10.5 10.5,21.1667 -0.5,31.5C -0.5,30.5 -0.5,29.5 -0.5,28.5C 9.5,19.1667 19.1667,9.5 28.5,-0.5 Z"/></g>
<g><path style="opacity:0.018" fill="#43443f" d="M 36.5,-0.5 C 37.5,-0.5 38.5,-0.5 39.5,-0.5C 26.5,13.1667 13.1667,26.5 -0.5,39.5C -0.5,38.5 -0.5,37.5 -0.5,36.5C 12.1667,24.5 24.5,12.1667 36.5,-0.5 Z"/></g>
<g><path style="opacity:0.018" fill="#43443f" d="M 44.5,-0.5 C 45.5,-0.5 46.5,-0.5 47.5,-0.5C 31.8333,15.8333 15.8333,31.8333 -0.5,47.5C -0.5,46.5 -0.5,45.5 -0.5,44.5C 14.8333,29.8333 29.8333,14.8333 44.5,-0.5 Z"/></g>
<g><path style="opacity:0.027" fill="#443f41" d="M 67.5,-0.5 C 68.5,-0.5 69.5,-0.5 70.5,-0.5C 69.5,0.833333 68.5,2.16667 67.5,3.5C 66.448,3.64945 65.448,3.48278 64.5,3C 65.7101,1.9609 66.7101,0.794229 67.5,-0.5 Z"/></g>
<g><path style="opacity:0.018" fill="#433a42" d="M 75.5,-0.5 C 76.5,-0.5 77.5,-0.5 78.5,-0.5C 78.5,-0.166667 78.5,0.166667 78.5,0.5C 77.209,0.737305 76.209,0.403972 75.5,-0.5 Z"/></g>
<g><path style="opacity:0.998" fill="#47af2c" d="M 94.5,-0.5 C 96.1667,-0.5 97.8333,-0.5 99.5,-0.5C 66.5,33.1667 33.1667,66.5 -0.5,99.5C -0.5,97.5 -0.5,95.5 -0.5,93.5C 31.1936,62.1395 62.8602,30.8061 94.5,-0.5 Z"/></g>
<g><path style="opacity:0.998" fill="#47ae2c" d="M 99.5,-0.5 C 103.167,-0.5 106.833,-0.5 110.5,-0.5C 73.1667,36.1667 36.1667,73.1667 -0.5,110.5C -0.5,106.833 -0.5,103.167 -0.5,99.5C 33.1667,66.5 66.5,33.1667 99.5,-0.5 Z"/></g>
<g><path style="opacity:0.02" fill="#433d41" d="M 122.5,-0.5 C 123.5,-0.5 124.5,-0.5 125.5,-0.5C 124.5,0.833333 123.5,0.833333 122.5,-0.5 Z"/></g>
<g><path style="opacity:0.017" fill="#443f40" d="M 130.5,-0.5 C 131.5,-0.5 132.5,-0.5 133.5,-0.5C 132.599,1.7271 130.933,2.7271 128.5,2.5C 129.167,1.5 129.833,0.5 130.5,-0.5 Z"/></g>
<g><path style="opacity:0.018" fill="#444040" d="M 138.5,-0.5 C 139.5,-0.5 140.5,-0.5 141.5,-0.5C 140.032,0.805727 138.699,2.30573 137.5,4C 136.552,4.48278 135.552,4.64945 134.5,4.5C 135.833,2.83333 137.167,1.16667 138.5,-0.5 Z"/></g>
<g><path style="opacity:0.022" fill="#444340" d="M 145.5,-0.5 C 146.5,-0.5 147.5,-0.5 148.5,-0.5C 146.472,2.71906 143.805,4.88573 140.5,6C 142.765,4.24186 144.432,2.07519 145.5,-0.5 Z"/></g>
<g><path style="opacity:0.018" fill="#444240" d="M 153.5,-0.5 C 154.5,-0.5 155.5,-0.5 156.5,-0.5C 153.437,3.56581 149.771,6.89914 145.5,9.5C 147.763,5.89711 150.43,2.56378 153.5,-0.5 Z"/></g>
<g><path style="opacity:0.018" fill="#444240" d="M 161.5,-0.5 C 162.5,-0.5 163.5,-0.5 164.5,-0.5C 160.441,4.56196 155.774,8.89529 150.5,12.5C 153.768,7.89273 157.435,3.5594 161.5,-0.5 Z"/></g>
<g><path style="opacity:0.018" fill="#444340" d="M 169.5,-0.5 C 170.5,-0.5 171.5,-0.5 172.5,-0.5C 167.443,5.55947 161.776,10.8928 155.5,15.5C 159.772,9.89024 164.438,4.5569 169.5,-0.5 Z"/></g>
<g><path style="opacity:0.018" fill="#434340" d="M 177.5,-0.5 C 178.5,-0.5 179.5,-0.5 180.5,-0.5C 174.521,6.14566 168.188,12.479 161.5,18.5C 160.479,17.9984 160.312,17.3317 161,16.5C 166.703,10.9647 172.203,5.29805 177.5,-0.5 Z"/></g>
<g><path style="opacity:0.024" fill="#444340" d="M 185.5,-0.5 C 186.167,-0.5 186.833,-0.5 187.5,-0.5C 180.188,7.479 172.521,15.1457 164.5,22.5C 171.137,14.528 178.137,6.86133 185.5,-0.5 Z"/></g>
<g><path style="opacity:0.018" fill="#444340" d="M 192.5,-0.5 C 193.5,-0.5 194.5,-0.5 195.5,-0.5C 187.113,8.88853 178.113,17.5552 168.5,25.5C 176.11,16.5531 184.11,7.88647 192.5,-0.5 Z"/></g>
<g><path style="opacity:1" fill="#47ae2c" d="M 84.5,-0.5 C 87.8333,-0.5 91.1667,-0.5 94.5,-0.5C 62.8602,30.8061 31.1936,62.1395 -0.5,93.5C -0.5,90.5 -0.5,87.5 -0.5,84.5C 0.434475,83.4324 0.767809,82.099 0.5,80.5C 1.28997,81.6085 1.78997,82.9419 2,84.5C 2.33333,83.1667 2.66667,81.8333 3,80.5C 29.1667,54.3333 55.3333,28.1667 81.5,2C 80.5842,1.72158 79.9175,1.22158 79.5,0.5C 81.4147,0.784479 83.0813,0.451145 84.5,-0.5 Z"/></g>
<g><path style="opacity:1" fill="#47b02c" d="M 110.5,-0.5 C 111.833,-0.5 113.167,-0.5 114.5,-0.5C 116.5,0.166667 118.5,0.833333 120.5,1.5C 104.868,17.6319 89.0351,33.6319 73,49.5C 72.1667,48.6667 71.3333,47.8333 70.5,47C 85,32.5 99.5,18 114,3.5C 114.667,2.83333 114.667,2.16667 114,1.5C 99,15.8333 84.3333,30.5 70,45.5C 69.5172,46.448 69.3505,47.448 69.5,48.5C 67.302,48.1201 65.6354,48.7868 64.5,50.5C 63.5,50.8333 62.8333,51.5 62.5,52.5C 61.1667,53.1667 60.1667,54.1667 59.5,55.5C 58.8333,55.5 58.5,55.8333 58.5,56.5C 57.8333,56.5 57.5,56.8333 57.5,57.5C 56.8333,57.5 56.5,57.8333 56.5,58.5C 55.8333,58.5 55.5,58.8333 55.5,59.5C 54.8333,59.5 54.5,59.8333 54.5,60.5C 53.8333,60.5 53.5,60.8333 53.5,61.5C 52.8333,61.5 52.5,61.8333 52.5,62.5C 51.8333,62.5 51.5,62.8333 51.5,63.5C 50.8333,63.5 50.5,63.8333 50.5,64.5C 49.8333,64.5 49.5,64.8333 49.5,65.5C 48.7109,65.7828 48.0442,66.2828 47.5,67C 48.5822,68.3297 49.2488,69.8297 49.5,71.5C 48.2652,71.2786 47.2652,70.6119 46.5,69.5C 31.5408,83.9587 16.7075,98.6254 2,113.5C 1.78997,115.058 1.28997,116.391 0.5,117.5C 0.737305,116.209 0.403972,115.209 -0.5,114.5C -0.5,113.167 -0.5,111.833 -0.5,110.5C 36.1667,73.1667 73.1667,36.1667 110.5,-0.5 Z"/></g>
<g><path style="opacity:0.018" fill="#444340" d="M 199.5,1.5 C 199.5,2.5 199.5,3.5 199.5,4.5C 190.78,13.2228 181.78,21.5561 172.5,29.5C 180.778,19.5534 189.778,10.2201 199.5,1.5 Z"/></g>
<g><path style="opacity:1" fill="#48af2c" d="M 78.5,0.5 C 78.8333,0.5 79.1667,0.5 79.5,0.5C 79.9175,1.22158 80.5842,1.72158 81.5,2C 55.3333,28.1667 29.1667,54.3333 3,80.5C 2.66667,81.8333 2.33333,83.1667 2,84.5C 1.78997,82.9419 1.28997,81.6085 0.5,80.5C 1.04816,78.3736 1.71482,76.3736 2.5,74.5C 27.8311,50.8356 52.4977,26.5023 76.5,1.5C 77.4916,1.67158 78.1583,1.33825 78.5,0.5 Z"/></g>
<g><path style="opacity:1" fill="#47af2c" d="M 120.5,1.5 C 122.861,1.67412 125.194,2.00745 127.5,2.5C 111.25,19.2508 94.7501,35.9174 78,52.5C 77.805,53.8193 77.9717,55.1526 78.5,56.5C 77.8333,56.1667 77.1667,55.8333 76.5,55.5C 75.5,53.8333 74.1667,52.5 72.5,51.5C 71.8333,50.1667 70.8333,49.1667 69.5,48.5C 69.3505,47.448 69.5172,46.448 70,45.5C 84.3333,30.5 99,15.8333 114,1.5C 114.667,2.16667 114.667,2.83333 114,3.5C 99.5,18 85,32.5 70.5,47C 71.3333,47.8333 72.1667,48.6667 73,49.5C 89.0351,33.6319 104.868,17.6319 120.5,1.5 Z"/></g>
<g><path style="opacity:1" fill="#47af2c" d="M 76.5,1.5 C 52.4977,26.5023 27.8311,50.8356 2.5,74.5C 2.99255,72.1944 3.32588,69.861 3.5,67.5C 4.68729,65.9275 5.68729,64.2608 6.5,62.5C 25.1024,45.3992 43.2691,27.7326 61,9.5C 61.5133,8.47344 62.0133,7.47344 62.5,6.5C 64.0725,5.31271 65.7392,4.31271 67.5,3.5C 70.5979,3.24444 73.5979,2.57778 76.5,1.5 Z"/></g>
<g><path style="opacity:1" fill="#47ae2c" d="M 127.5,2.5 C 127.833,2.5 128.167,2.5 128.5,2.5C 130.214,3.73838 132.214,4.40505 134.5,4.5C 134.5,4.83333 134.5,5.16667 134.5,5.5C 117.202,23.2986 99.7017,40.9652 82,58.5C 81.1841,57.1772 80.0174,56.5106 78.5,56.5C 77.9717,55.1526 77.805,53.8193 78,52.5C 94.7501,35.9174 111.25,19.2508 127.5,2.5 Z"/></g>
<g><path style="opacity:0.014" fill="#443f40" d="M 60.5,-0.5 C 61.1667,-0.5 61.8333,-0.5 62.5,-0.5C 59.5507,2.78768 56.5507,6.12101 53.5,9.5C 51.3523,9.61063 51.019,8.94396 52.5,7.5C 55.5211,5.1456 58.1877,2.47893 60.5,-0.5 Z"/></g>
<g><path style="opacity:1" fill="#47af2b" d="M 134.5,5.5 C 135.833,5.83333 137.167,6.16667 138.5,6.5C 120.087,26.4152 101.087,45.9152 81.5,65C 80.5632,65.6917 79.8966,65.525 79.5,64.5C 80.9835,61.5891 80.6502,58.9225 78.5,56.5C 80.0174,56.5106 81.1841,57.1772 82,58.5C 99.7017,40.9652 117.202,23.2986 134.5,5.5 Z"/></g>
<g><path style="opacity:1" fill="#47ae2c" d="M 62.5,6.5 C 62.0133,7.47344 61.5133,8.47344 61,9.5C 43.2691,27.7326 25.1024,45.3992 6.5,62.5C 7.30237,59.4262 8.30237,56.4262 9.5,53.5C 14.584,45.6672 19.9174,38.0005 25.5,30.5C 26.1667,30.5 26.5,30.1667 26.5,29.5C 27.1667,29.5 27.5,29.1667 27.5,28.5C 28.1667,28.5 28.5,28.1667 28.5,27.5C 29.1667,27.5 29.5,27.1667 29.5,26.5C 30.1667,26.5 30.5,26.1667 30.5,25.5C 36.8386,20.8262 43.172,16.1596 49.5,11.5C 51.153,11.3404 52.4863,10.6737 53.5,9.5C 56.4061,8.21336 59.4061,7.21336 62.5,6.5 Z"/></g>
<g><path style="opacity:1" fill="#47ae2c" d="M 138.5,6.5 C 140.713,7.77287 143.046,8.77287 145.5,9.5C 145.5,9.83333 145.5,10.1667 145.5,10.5C 122.535,33.9653 99.3683,57.2986 76,80.5C 75.5357,81.0944 75.369,81.7611 75.5,82.5C 74.8333,81.8333 74.1667,81.1667 73.5,80.5C 71.7516,78.8401 71.2516,76.8401 72,74.5C 73.9789,70.6997 76.4789,67.3664 79.5,64.5C 79.8966,65.525 80.5632,65.6917 81.5,65C 101.087,45.9152 120.087,26.4152 138.5,6.5 Z"/></g>
<g><path style="opacity:0.018" fill="#434340" d="M 199.5,9.5 C 199.5,10.5 199.5,11.5 199.5,12.5C 191.833,19.8333 184.167,27.1667 176.5,34.5C 176.351,33.448 176.517,32.448 177,31.5C 184.368,23.9642 191.868,16.6308 199.5,9.5 Z"/></g>
<g><path style="opacity:0.004" fill="#43443f" d="M 49.5,11.5 C 48.8333,10.1667 48.8333,10.1667 49.5,11.5 Z"/></g>
<g><path style="opacity:1" fill="#47b02b" d="M 145.5,10.5 C 146.492,10.3284 147.158,10.6618 147.5,11.5C 146.347,12.3132 146.347,13.3132 147.5,14.5C 126.124,35.8419 104.791,57.1752 83.5,78.5C 81.4084,80.6049 79.0751,82.2716 76.5,83.5C 75.8333,83.5 75.5,83.1667 75.5,82.5C 75.369,81.7611 75.5357,81.0944 76,80.5C 99.3683,57.2986 122.535,33.9653 145.5,10.5 Z"/></g>
<g><path style="opacity:1" fill="#47ae2c" d="M 147.5,11.5 C 148.391,12.1098 149.391,12.4431 150.5,12.5C 151.899,13.8897 153.566,14.8897 155.5,15.5C 155.5,15.8333 155.5,16.1667 155.5,16.5C 130.536,40.465 106.202,65.1317 82.5,90.5C 81.8333,90.1667 81.1667,89.8333 80.5,89.5C 79.1667,87.5 77.8333,85.5 76.5,83.5C 79.0751,82.2716 81.4084,80.6049 83.5,78.5C 104.791,57.1752 126.124,35.8419 147.5,14.5C 146.347,13.3132 146.347,12.3132 147.5,11.5 Z"/></g>
<g><path style="opacity:1" fill="#47b02b" d="M 155.5,16.5 C 158.135,17.8109 160.469,19.4776 162.5,21.5C 160.915,21.9854 159.415,21.3188 158,19.5C 133.582,44.4193 108.749,68.7526 83.5,92.5C 82.6618,92.1583 82.3284,91.4916 82.5,90.5C 106.202,65.1317 130.536,40.465 155.5,16.5 Z"/></g>
<g><path style="opacity:0.018" fill="#434340" d="M 199.5,17.5 C 199.5,18.5 199.5,19.5 199.5,20.5C 193.202,26.2972 187.035,32.2972 181,38.5C 180.5,38 180,37.5 179.5,37C 186.035,30.2973 192.702,23.7973 199.5,17.5 Z"/></g>
<g><path style="opacity:1" fill="#47ae2c" d="M 162.5,21.5 C 163.167,21.8333 163.833,22.1667 164.5,22.5C 164.5,22.8333 164.5,23.1667 164.5,23.5C 139.167,48.1667 114.167,73.1667 89.5,98.5C 87.8333,97.1667 86.1667,95.8333 84.5,94.5C 84.1667,93.8333 83.8333,93.1667 83.5,92.5C 108.749,68.7526 133.582,44.4193 158,19.5C 159.415,21.3188 160.915,21.9854 162.5,21.5 Z"/></g>
<g><path style="opacity:1" fill="#47af2c" d="M 164.5,23.5 C 165.167,23.5 165.5,23.8333 165.5,24.5C 165.511,26.0174 166.177,27.1841 167.5,28C 142.247,52.7509 117.581,77.9176 93.5,103.5C 92.8333,103.167 92.1667,102.833 91.5,102.5C 90.8333,101.167 90.1667,99.8333 89.5,98.5C 114.167,73.1667 139.167,48.1667 164.5,23.5 Z"/></g>
<g><path style="opacity:0.023" fill="#434340" d="M 199.5,25.5 C 199.5,26.1667 199.5,26.8333 199.5,27.5C 194.215,32.1186 189.215,37.1186 184.5,42.5C 183.692,42.1924 183.025,41.6924 182.5,41C 188.336,35.9958 194.003,30.8292 199.5,25.5 Z"/></g>
<g><path style="opacity:0.031" fill="#443f41" d="M 52.5,-0.5 C 53.5,-0.5 54.5,-0.5 55.5,-0.5C 47.1667,8.16667 38.8333,16.8333 30.5,25.5C 29.8333,25.5 29.5,25.8333 29.5,26.5C 28.8333,26.5 28.5,26.8333 28.5,27.5C 27.8333,27.5 27.5,27.8333 27.5,28.5C 26.8333,28.5 26.5,28.8333 26.5,29.5C 25.8333,29.5 25.5,29.8333 25.5,30.5C 16.8333,38.8333 8.16667,47.1667 -0.5,55.5C -0.5,54.5 -0.5,53.5 -0.5,52.5C 17.5,35.1667 35.1667,17.5 52.5,-0.5 Z"/></g>
<g><path style="opacity:1" fill="#47af2c" d="M 165.5,24.5 C 166.391,25.1098 167.391,25.4431 168.5,25.5C 169.5,27.1667 170.833,28.5 172.5,29.5C 172.5,30.1667 172.5,30.8333 172.5,31.5C 146.783,56.2166 121.783,81.55 97.5,107.5C 96.8333,107.167 96.1667,106.833 95.5,106.5C 94.8333,105.5 94.1667,104.5 93.5,103.5C 117.581,77.9176 142.247,52.7509 167.5,28C 166.177,27.1841 165.511,26.0174 165.5,24.5 Z"/></g>
<g><path style="opacity:1" fill="#48b02b" d="M 172.5,31.5 C 173.5,31.8333 174.167,32.5 174.5,33.5C 149.833,58.8333 124.833,83.8333 99.5,108.5C 98.5084,108.672 97.8417,108.338 97.5,107.5C 121.783,81.55 146.783,56.2166 172.5,31.5 Z"/></g>
<g><path style="opacity:0.019" fill="#444340" d="M 199.5,32.5 C 199.5,33.5 199.5,34.5 199.5,35.5C 195.202,39.2964 191.036,43.2964 187,47.5C 186.833,47 186.667,46.5 186.5,46C 190.491,41.1985 194.824,36.6985 199.5,32.5 Z"/></g>
<g><path style="opacity:1" fill="#47af2b" d="M 174.5,33.5 C 175.167,33.8333 175.833,34.1667 176.5,34.5C 177.167,35.5 177.833,36.5 178.5,37.5C 153.86,62.8063 128.86,87.8063 103.5,112.5C 101.833,111.5 100.5,110.167 99.5,108.5C 124.833,83.8333 149.833,58.8333 174.5,33.5 Z"/></g>
<g><path style="opacity:1" fill="#47ae2b" d="M 178.5,37.5 C 180.412,39.6572 182.079,41.9906 183.5,44.5C 158.217,68.116 133.55,92.4494 109.5,117.5C 107.228,116.559 105.228,115.226 103.5,113.5C 103.5,113.167 103.5,112.833 103.5,112.5C 128.86,87.8063 153.86,62.8063 178.5,37.5 Z"/></g>
<g><path style="opacity:0.018" fill="#434340" d="M 199.5,40.5 C 199.5,41.5 199.5,42.5 199.5,43.5C 196.203,46.2956 193.036,49.2956 190,52.5C 189.833,52 189.667,51.5 189.5,51C 192.322,47.0109 195.656,43.5109 199.5,40.5 Z"/></g>
<g><path style="opacity:1" fill="#47b02b" d="M 183.5,44.5 C 183.833,45.1667 184.167,45.8333 184.5,46.5C 161.419,71.0823 137.753,95.249 113.5,119C 112.906,119.464 112.239,119.631 111.5,119.5C 110.5,119.167 109.833,118.5 109.5,117.5C 133.55,92.4494 158.217,68.116 183.5,44.5 Z"/></g>
<g><path style="opacity:0.018" fill="#444340" d="M 199.5,48.5 C 199.5,49.5 199.5,50.5 199.5,51.5C 197.098,53.9092 194.431,55.9092 191.5,57.5C 193.43,53.8998 196.097,50.8998 199.5,48.5 Z"/></g>
<g><path style="opacity:1" fill="#47ae2c" d="M 184.5,46.5 C 186.083,48.6626 187.416,50.9959 188.5,53.5C 165.194,77.1398 141.861,100.806 118.5,124.5C 117.833,124.5 117.167,124.5 116.5,124.5C 115.738,122.738 114.404,121.738 112.5,121.5C 112.167,120.833 111.833,120.167 111.5,119.5C 112.239,119.631 112.906,119.464 113.5,119C 137.753,95.249 161.419,71.0823 184.5,46.5 Z"/></g>
<g><path style="opacity:0.02" fill="#443d41" d="M 64.5,50.5 C 66.9327,50.7856 66.9327,51.4523 64.5,52.5C 64.5,51.8333 64.5,51.1667 64.5,50.5 Z"/></g>
<g><path style="opacity:0.02" fill="#443d41" d="M 62.5,52.5 C 63.1667,52.5 63.8333,52.5 64.5,52.5C 63.4523,54.9327 62.7856,54.9327 62.5,52.5 Z"/></g>
<g><path style="opacity:0.018" fill="#434240" d="M 72.5,51.5 C 72.631,52.2389 72.4643,52.9056 72,53.5C 65.5772,60.4284 58.7438,66.7617 51.5,72.5C 51.369,71.7611 51.5357,71.0944 52,70.5C 58.4228,63.5716 65.2562,57.2383 72.5,51.5 Z"/></g>
<g><path style="opacity:1" fill="#48b02b" d="M 188.5,53.5 C 189.674,54.5137 190.34,55.847 190.5,57.5C 167.521,79.8123 144.521,102.812 121.5,126.5C 119.973,126.573 118.973,125.906 118.5,124.5C 141.861,100.806 165.194,77.1398 188.5,53.5 Z"/></g>
<g><path style="opacity:0.02" fill="#443b40" d="M 59.5,55.5 C 60.2389,55.369 60.9056,55.5357 61.5,56C 57.6667,59.8333 53.8333,63.6667 50,67.5C 49.5357,66.9056 49.369,66.2389 49.5,65.5C 50.1667,65.5 50.5,65.1667 50.5,64.5C 51.1667,64.5 51.5,64.1667 51.5,63.5C 52.1667,63.5 52.5,63.1667 52.5,62.5C 53.1667,62.5 53.5,62.1667 53.5,61.5C 54.1667,61.5 54.5,61.1667 54.5,60.5C 55.1667,60.5 55.5,60.1667 55.5,59.5C 56.1667,59.5 56.5,59.1667 56.5,58.5C 57.1667,58.5 57.5,58.1667 57.5,57.5C 58.1667,57.5 58.5,57.1667 58.5,56.5C 59.1667,56.5 59.5,56.1667 59.5,55.5 Z"/></g>
<g><path style="opacity:0.018" fill="#444240" d="M 76.5,55.5 C 70.2608,63.2444 63.4275,70.5777 56,77.5C 55.6174,76.944 55.1174,76.6107 54.5,76.5C 61.2216,68.7765 68.555,61.7765 76.5,55.5 Z"/></g>
<g><path style="opacity:0.017" fill="#434340" d="M 199.5,56.5 C 199.5,57.5 199.5,58.5 199.5,59.5C 197.871,60.6253 196.371,61.9586 195,63.5C 194.968,60.3324 196.468,57.9991 199.5,56.5 Z"/></g>
<g><path style="opacity:0.025" fill="#444240" d="M 9.5,53.5 C 6.16667,56.5 2.83333,59.5 -0.5,62.5C -0.5,61.8333 -0.5,61.1667 -0.5,60.5C 2.68794,57.6317 5.85461,54.6317 9,51.5C 9.46434,52.0944 9.63101,52.7611 9.5,53.5 Z"/></g>
<g><path style="opacity:1" fill="#47ae2c" d="M 190.5,57.5 C 190.833,57.5 191.167,57.5 191.5,57.5C 192.492,60.8229 193.492,64.1563 194.5,67.5C 177.928,85.7401 160.595,103.407 142.5,120.5C 140.638,118.525 138.638,118.192 136.5,119.5C 134.973,119.427 133.973,120.094 133.5,121.5C 132.833,121.5 132.5,121.833 132.5,122.5C 129.189,124.156 125.855,125.822 122.5,127.5C 121.893,127.376 121.56,127.043 121.5,126.5C 144.521,102.812 167.521,79.8123 190.5,57.5 Z"/></g>
<g><path style="opacity:0.021" fill="#444240" d="M 199.5,64.5 C 199.5,65.5 199.5,66.5 199.5,67.5C 198.25,67.5774 197.417,68.244 197,69.5C 196.253,67.0722 197.086,65.4056 199.5,64.5 Z"/></g>
<g><path style="opacity:0.018" fill="#444040" d="M 3.5,67.5 C 2.16667,68.5 0.833333,69.5 -0.5,70.5C -0.5,69.5 -0.5,68.5 -0.5,67.5C 0.794229,66.7101 1.9609,65.7101 3,64.5C 3.48278,65.448 3.64945,66.448 3.5,67.5 Z"/></g>
<g><path style="opacity:0.019" fill="#434240" d="M 78.5,59.5 C 79.4646,60.7211 79.298,62.0544 78,63.5C 72.1396,69.3604 66.3063,75.1937 60.5,81C 59.2752,81.5628 58.2752,81.2295 57.5,80C 65.0043,73.6621 72.0043,66.8287 78.5,59.5 Z"/></g>
<g><path style="opacity:1" fill="#47ae2c" d="M 49.5,71.5 C 50.1667,71.8333 50.8333,72.1667 51.5,72.5C 51.5,73.1667 51.5,73.8333 51.5,74.5C 34.4049,90.5933 18.0716,107.26 2.5,124.5C 1.59334,122.343 0.926675,120.01 0.5,117.5C 1.28997,116.391 1.78997,115.058 2,113.5C 16.7075,98.6254 31.5408,83.9587 46.5,69.5C 47.2652,70.6119 48.2652,71.2786 49.5,71.5 Z"/></g>
<g><path style="opacity:1" fill="#47ae2c" d="M 194.5,67.5 C 195.434,68.5676 195.768,69.901 195.5,71.5C 195.663,73.8568 195.497,76.1902 195,78.5C 178.912,94.0853 163.412,110.085 148.5,126.5C 147.833,126.167 147.167,125.833 146.5,125.5C 145.5,123.833 144.167,122.5 142.5,121.5C 142.5,121.167 142.5,120.833 142.5,120.5C 160.595,103.407 177.928,85.7401 194.5,67.5 Z"/></g>
<g><path style="opacity:0.024" fill="#433f41" d="M 199.5,72.5 C 199.5,73.1667 199.5,73.8333 199.5,74.5C 198.833,74.5 198.167,74.5 197.5,74.5C 197.5,73.1667 198.167,72.5 199.5,72.5 Z"/></g>
<g><path style="opacity:0.027" fill="#403b45" d="M -0.5,75.5 C 0.833333,76.5 0.833333,77.5 -0.5,78.5C -0.5,77.5 -0.5,76.5 -0.5,75.5 Z"/></g>
<g><path style="opacity:0.024" fill="#444040" d="M 61.5,86.5 C 61.281,85.325 61.6143,84.325 62.5,83.5C 65.1506,81.3501 67.6506,79.0168 70,76.5C 68.2064,80.4807 65.3731,83.8141 61.5,86.5 Z"/></g>
<g><path style="opacity:1" fill="#47ae2c" d="M 195.5,71.5 C 196.167,72.5 196.833,73.5 197.5,74.5C 197.704,77.5176 198.037,80.5176 198.5,83.5C 183.368,98.1315 168.368,112.965 153.5,128C 152.552,128.483 151.552,128.649 150.5,128.5C 149.5,128.167 148.833,127.5 148.5,126.5C 163.412,110.085 178.912,94.0853 195,78.5C 195.497,76.1902 195.663,73.8568 195.5,71.5 Z"/></g>
<g><path style="opacity:1" fill="#47af2c" d="M 51.5,74.5 C 52.5,75.1667 53.5,75.8333 54.5,76.5C 55.9131,79.6612 57.5797,82.6612 59.5,85.5C 42.885,103.783 25.5517,121.449 7.5,138.5C 4.74953,134.31 3.08286,129.644 2.5,124.5C 18.0716,107.26 34.4049,90.5933 51.5,74.5 Z"/></g>
<g><path style="opacity:0.018" fill="#454140" d="M 73.5,80.5 C 71.9312,85.0714 68.9312,88.4047 64.5,90.5C 66.7657,86.5644 69.7657,83.2311 73.5,80.5 Z"/></g>
<g><path style="opacity:0.019" fill="#444140" d="M 75.5,85.5 C 76.2891,85.7828 76.9558,86.2828 77.5,87C 74.9841,89.6833 72.3174,92.1833 69.5,94.5C 68.479,93.9984 68.3123,93.3317 69,92.5C 71.3722,90.2968 73.5389,87.9635 75.5,85.5 Z"/></g>
<g><path style="opacity:1" fill="#47ae2c" d="M 59.5,85.5 C 60.1667,85.8333 60.8333,86.1667 61.5,86.5C 62.0256,88.2303 63.0256,89.5637 64.5,90.5C 64.8333,91.1667 65.1667,91.8333 65.5,92.5C 65.2792,95.0972 64.7792,95.0972 64,92.5C 46.2717,110.396 28.4383,128.062 10.5,145.5C 10.1667,145.5 9.83333,145.5 9.5,145.5C 8.54483,143.254 7.87816,140.921 7.5,138.5C 25.5517,121.449 42.885,103.783 59.5,85.5 Z"/></g>
<g><path style="opacity:0.019" fill="#444041" d="M 80.5,89.5 C 79.0051,93.673 76.3384,97.0063 72.5,99.5C 72.5,98.8333 72.1667,98.5 71.5,98.5C 74.1667,95.1667 77.1667,92.1667 80.5,89.5 Z"/></g>
<g><path style="opacity:0.997" fill="#47ae2c" d="M 198.5,83.5 C 198.5,84.1667 198.833,84.5 199.5,84.5C 199.5,88.8333 199.5,93.1667 199.5,97.5C 165.478,131.188 131.811,165.188 98.5,199.5C 94.8333,199.5 91.1667,199.5 87.5,199.5C 103.479,183.521 119.479,167.521 135.5,151.5C 136.549,149.472 137.549,147.472 138.5,145.5C 142.13,141.369 145.963,137.369 150,133.5C 150.494,131.866 150.66,130.199 150.5,128.5C 151.552,128.649 152.552,128.483 153.5,128C 168.368,112.965 183.368,98.1315 198.5,83.5 Z"/></g>
<g><path style="opacity:1" fill="#47af2b" d="M 65.5,92.5 C 67.137,94.4752 68.8036,96.4752 70.5,98.5C 52.5,117.167 34.1667,135.5 15.5,153.5C 14.2719,152.694 13.2719,151.694 12.5,150.5C 11.8333,148.833 11.1667,147.167 10.5,145.5C 28.4383,128.062 46.2717,110.396 64,92.5C 64.7792,95.0972 65.2792,95.0972 65.5,92.5 Z"/></g>
<g><path style="opacity:0.019" fill="#434140" d="M 84.5,94.5 C 82.5,98.5 79.5,101.5 75.5,103.5C 77.5,99.5 80.5,96.5 84.5,94.5 Z"/></g>
<g><path style="opacity:0.999" fill="#47af2c" d="M 199.5,97.5 C 199.5,99.5 199.5,101.5 199.5,103.5C 167.167,135.167 135.167,167.167 103.5,199.5C 101.833,199.5 100.167,199.5 98.5,199.5C 131.811,165.188 165.478,131.188 199.5,97.5 Z"/></g>
<g><path style="opacity:0.025" fill="#444040" d="M 79.5,107.5 C 81.3883,104.101 83.8883,101.101 87,98.5C 87.5,99 88,99.5 88.5,100C 85.3347,102.335 82.3347,104.835 79.5,107.5 Z"/></g>
<g><path style="opacity:1" fill="#47ae2c" d="M 70.5,98.5 C 70.8333,98.5 71.1667,98.5 71.5,98.5C 72.1667,98.5 72.5,98.8333 72.5,99.5C 72.7376,101.404 73.7376,102.738 75.5,103.5C 76.5,105.167 77.8333,106.5 79.5,107.5C 79.5,107.833 79.5,108.167 79.5,108.5C 61.2014,126.298 43.0347,144.298 25,162.5C 24.6992,165.091 25.8659,165.925 28.5,165C 46.0123,146.978 63.6789,129.811 81.5,113.5C 64.1806,131.319 46.6806,148.986 29,166.5C 28.4867,167.527 27.9867,168.527 27.5,169.5C 26.194,167.527 24.5273,165.861 22.5,164.5C 21.396,162.611 20.0627,160.945 18.5,159.5C 17.9744,157.77 16.9744,156.436 15.5,155.5C 15.5,154.833 15.5,154.167 15.5,153.5C 34.1667,135.5 52.5,117.167 70.5,98.5 Z"/></g>
<g><path style="opacity:0.018" fill="#434240" d="M 91.5,102.5 C 89.5698,106.1 86.9031,109.1 83.5,111.5C 83.5,110.833 83.1667,110.5 82.5,110.5C 84.8998,107.097 87.8998,104.43 91.5,102.5 Z"/></g>
<g><path style="opacity:0.019" fill="#444240" d="M 95.5,106.5 C 93.5698,110.1 90.9031,113.1 87.5,115.5C 87.5,114.833 87.1667,114.5 86.5,114.5C 88.8998,111.097 91.8998,108.43 95.5,106.5 Z"/></g>
<g><path style="opacity:1" fill="#47ae2c" d="M 199.5,103.5 C 199.5,107.167 199.5,110.833 199.5,114.5C 198.662,114.842 198.328,115.508 198.5,116.5C 197.778,116.918 197.278,117.584 197,118.5C 196.667,117.833 196.333,117.167 196,116.5C 168.632,143.701 141.465,171.035 114.5,198.5C 114.5,198.833 114.5,199.167 114.5,199.5C 110.833,199.5 107.167,199.5 103.5,199.5C 135.167,167.167 167.167,135.167 199.5,103.5 Z"/></g>
<g><path style="opacity:0.019" fill="#444240" d="M 91.5,119.5 C 91.5,118.833 91.1667,118.5 90.5,118.5C 92.8123,115.521 95.4789,112.854 98.5,110.5C 99.521,111.002 99.6877,111.668 99,112.5C 96.6303,115.039 94.1303,117.372 91.5,119.5 Z"/></g>
<g><path style="opacity:1" fill="#47af2c" d="M 79.5,108.5 C 80.5,109.167 81.5,109.833 82.5,110.5C 83.1667,110.5 83.5,110.833 83.5,111.5C 84.1667,112.833 85.1667,113.833 86.5,114.5C 87.1667,114.5 87.5,114.833 87.5,115.5C 88.1667,116.5 88.8333,117.5 89.5,118.5C 71.2147,137.452 52.548,156.119 33.5,174.5C 32.3951,173.4 31.0618,172.733 29.5,172.5C 28.8333,171.5 28.1667,170.5 27.5,169.5C 27.9867,168.527 28.4867,167.527 29,166.5C 46.6806,148.986 64.1806,131.319 81.5,113.5C 63.6789,129.811 46.0123,146.978 28.5,165C 25.8659,165.925 24.6992,165.091 25,162.5C 43.0347,144.298 61.2014,126.298 79.5,108.5 Z"/></g>
<g><path style="opacity:0.019" fill="#434240" d="M 103.5,113.5 C 102.167,118.167 99.1667,121.167 94.5,122.5C 97.1667,119.167 100.167,116.167 103.5,113.5 Z"/></g>
<g><path style="opacity:1" fill="#47b02b" d="M 198.5,116.5 C 198.371,118.216 198.038,119.883 197.5,121.5C 172.548,145.785 147.881,170.452 123.5,195.5C 121.116,196.011 119.116,197.011 117.5,198.5C 116.5,198.5 115.5,198.5 114.5,198.5C 141.465,171.035 168.632,143.701 196,116.5C 196.333,117.167 196.667,117.833 197,118.5C 197.278,117.584 197.778,116.918 198.5,116.5 Z"/></g>
<g><path style="opacity:0.023" fill="#434140" d="M 99.5,126.5 C 99.3893,125.883 99.056,125.383 98.5,125C 101.63,122.872 104.463,120.372 107,117.5C 107.5,118 108,118.5 108.5,119C 105.811,121.883 102.811,124.383 99.5,126.5 Z"/></g>
<g><path style="opacity:1" fill="#47ae2c" d="M 89.5,118.5 C 89.8333,118.5 90.1667,118.5 90.5,118.5C 91.1667,118.5 91.5,118.833 91.5,119.5C 92.1667,120.833 93.1667,121.833 94.5,122.5C 94.8333,123.167 95.1667,123.833 95.5,124.5C 77.2517,141.246 59.4184,158.579 42,176.5C 41.2086,177.745 40.7086,179.078 40.5,180.5C 37.5677,179.2 35.2344,177.2 33.5,174.5C 52.548,156.119 71.2147,137.452 89.5,118.5 Z"/></g>
<g><path style="opacity:0.02" fill="#434240" d="M 112.5,121.5 C 110.372,124.13 108.039,126.63 105.5,129C 104.668,129.688 104.002,129.521 103.5,128.5C 105.656,125.002 108.656,122.669 112.5,121.5 Z"/></g>
<g><path style="opacity:0.004" fill="#444240" d="M 199.5,120.5 C 199.5,121.167 199.5,121.833 199.5,122.5C 198.167,121.833 198.167,121.167 199.5,120.5 Z"/></g>
<g><path style="opacity:0.02" fill="#433f41" d="M -0.5,122.5 C 0.833333,123.5 0.833333,124.5 -0.5,125.5C -0.5,124.5 -0.5,123.5 -0.5,122.5 Z"/></g>
<g><path style="opacity:0.02" fill="#444340" d="M 142.5,121.5 C 142.649,122.552 142.483,123.552 142,124.5C 135.36,130.806 128.693,137.139 122,143.5C 121.333,142.833 121.333,142.167 122,141.5C 128.702,134.631 135.535,127.964 142.5,121.5 Z"/></g>
<g><path style="opacity:1" fill="#47b02b" d="M 95.5,124.5 C 96.5,124.833 97.1667,125.5 97.5,126.5C 79.7017,144.799 61.7017,162.965 43.5,181C 44.3805,181.708 45.0472,182.542 45.5,183.5C 43.5659,182.89 41.8993,181.89 40.5,180.5C 40.7086,179.078 41.2086,177.745 42,176.5C 59.4184,158.579 77.2517,141.246 95.5,124.5 Z"/></g>
<g><path style="opacity:0.018" fill="#444040" d="M 116.5,124.5 C 116.611,125.117 116.944,125.617 117.5,126C 114.271,128.741 110.938,131.241 107.5,133.5C 109.5,129.5 112.5,126.5 116.5,124.5 Z"/></g>
<g><path style="opacity:0.023" fill="#444240" d="M 146.5,125.5 C 146.631,126.239 146.464,126.906 146,127.5C 139.577,134.428 132.744,140.762 125.5,146.5C 132.215,139.119 139.215,132.119 146.5,125.5 Z"/></g>
<g><path style="opacity:1" fill="#47ae2c" d="M 197.5,121.5 C 196.626,124.789 195.959,128.123 195.5,131.5C 194.167,133.833 192.833,136.167 191.5,138.5C 174.024,154.447 156.024,171.947 137.5,191C 138.056,191.383 138.389,191.883 138.5,192.5C 135.843,192.935 133.509,193.935 131.5,195.5C 127.573,195.926 123.907,196.926 120.5,198.5C 119.5,198.5 118.5,198.5 117.5,198.5C 119.116,197.011 121.116,196.011 123.5,195.5C 147.881,170.452 172.548,145.785 197.5,121.5 Z"/></g>
<g><path style="opacity:1" fill="#47ae2c" d="M 97.5,126.5 C 98.1667,126.5 98.8333,126.5 99.5,126.5C 100.833,128.167 102.167,129.833 103.5,131.5C 85.7014,148.798 68.0348,166.298 50.5,184C 49.2068,184.49 47.8734,184.657 46.5,184.5C 45.8333,184.5 45.5,184.167 45.5,183.5C 45.0472,182.542 44.3805,181.708 43.5,181C 61.7017,162.965 79.7017,144.799 97.5,126.5 Z"/></g>
<g><path style="opacity:0.018" fill="#444240" d="M 111.5,136.5 C 114.129,133.369 116.962,130.369 120,127.5C 120.5,128 121,128.5 121.5,129C 118.806,132.551 115.472,135.051 111.5,136.5 Z"/></g>
<g><path style="opacity:0.024" fill="#443f40" d="M 199.5,126.5 C 199.5,127.5 199.5,128.5 199.5,129.5C 198.5,130.167 197.5,130.833 196.5,131.5C 196.273,129.067 197.273,127.401 199.5,126.5 Z"/></g>
<g><path style="opacity:0.018" fill="#444240" d="M 136.5,119.5 C 137.239,119.369 137.906,119.536 138.5,120C 131.578,127.428 124.244,134.261 116.5,140.5C 121.44,134.222 126.773,128.222 132.5,122.5C 133.167,122.5 133.5,122.167 133.5,121.5C 135.027,121.573 136.027,120.906 136.5,119.5 Z"/></g>
<g><path style="opacity:0.031" fill="#434140" d="M -0.5,133.5 C -0.5,132.5 -0.5,131.5 -0.5,130.5C 0.458367,130.047 1.2917,129.381 2,128.5C 2.74699,130.928 1.91366,132.594 -0.5,133.5 Z"/></g>
<g><path style="opacity:0.004" fill="#444340" d="M 195.5,131.5 C 195.833,131.5 196.167,131.5 196.5,131.5C 196.167,134.167 195.833,134.167 195.5,131.5 Z"/></g>
<g><path style="opacity:1" fill="#47af2c" d="M 103.5,131.5 C 104.833,132.167 106.167,132.833 107.5,133.5C 108.167,134.833 109.167,135.833 110.5,136.5C 92.4659,154.861 74.7993,172.861 57.5,190.5C 53.3447,189.258 49.678,187.258 46.5,184.5C 47.8734,184.657 49.2068,184.49 50.5,184C 68.0348,166.298 85.7014,148.798 103.5,131.5 Z"/></g>
<g><path style="opacity:0.018" fill="#444240" d="M 199.5,134.5 C 199.5,135.5 199.5,136.5 199.5,137.5C 196.5,140.167 193.5,142.833 190.5,145.5C 190.5,144.833 190.5,144.167 190.5,143.5C 191.338,143.158 191.672,142.492 191.5,141.5C 194.167,139.167 196.833,136.833 199.5,134.5 Z"/></g>
<g><path style="opacity:0.016" fill="#434240" d="M -0.5,141.5 C -0.5,140.5 -0.5,139.5 -0.5,138.5C 1.12879,137.375 2.62879,136.041 4,134.5C 4.03171,137.668 2.53171,140.001 -0.5,141.5 Z"/></g>
<g><path style="opacity:1" fill="#47af2c" d="M 110.5,136.5 C 110.833,136.5 111.167,136.5 111.5,136.5C 112.579,138.543 114.246,139.876 116.5,140.5C 117.306,141.728 118.306,142.728 119.5,143.5C 102.74,161.262 85.4068,178.262 67.5,194.5C 64.1667,193.5 60.8333,192.5 57.5,191.5C 57.5,191.167 57.5,190.833 57.5,190.5C 74.7993,172.861 92.4659,154.861 110.5,136.5 Z"/></g>
<g><path style="opacity:0.022" fill="#444340" d="M -0.5,148.5 C -0.5,147.833 -0.5,147.167 -0.5,146.5C 1.48481,144.576 3.48481,142.576 5.5,140.5C 5.83333,140.833 6.16667,141.167 6.5,141.5C 4.47891,144.188 2.14557,146.521 -0.5,148.5 Z"/></g>
<g><path style="opacity:1" fill="#47af2c" d="M 191.5,138.5 C 191.5,139.5 191.5,140.5 191.5,141.5C 190.662,141.842 190.328,142.508 190.5,143.5C 189.662,143.842 189.328,144.508 189.5,145.5C 185.587,150.988 181.921,156.655 178.5,162.5C 177.833,162.5 177.5,162.833 177.5,163.5C 176.833,163.5 176.5,163.833 176.5,164.5C 175.833,164.5 175.5,164.833 175.5,165.5C 173.738,166.262 172.738,167.596 172.5,169.5C 171.833,169.5 171.5,169.833 171.5,170.5C 170.833,170.5 170.5,170.833 170.5,171.5C 169.833,171.5 169.5,171.833 169.5,172.5C 167.251,173.08 165.585,174.413 164.5,176.5C 163.833,176.5 163.5,176.833 163.5,177.5C 162.833,177.5 162.5,177.833 162.5,178.5C 156.655,181.921 150.988,185.587 145.5,189.5C 144.508,189.328 143.842,189.662 143.5,190.5C 142.508,190.328 141.842,190.662 141.5,191.5C 140.391,191.557 139.391,191.89 138.5,192.5C 138.389,191.883 138.056,191.383 137.5,191C 156.024,171.947 174.024,154.447 191.5,138.5 Z"/></g>
<g><path style="opacity:0.027" fill="#443f40" d="M 148.5,129.5 C 149.573,130.251 149.74,131.251 149,132.5C 143.319,138.348 137.485,144.015 131.5,149.5C 130.479,148.998 130.312,148.332 131,147.5C 137.036,141.631 142.87,135.631 148.5,129.5 Z"/></g>
<g><path style="opacity:1" fill="#47ae2c" d="M 119.5,143.5 C 121.517,144.529 123.517,145.529 125.5,146.5C 125.833,147.167 126.167,147.833 126.5,148.5C 109.191,164.142 92.5242,180.475 76.5,197.5C 75.8333,197.5 75.1667,197.5 74.5,197.5C 72.2209,196.349 69.8876,195.349 67.5,194.5C 85.4068,178.262 102.74,161.262 119.5,143.5 Z"/></g>
<g><path style="opacity:0.004" fill="#434140" d="M 189.5,145.5 C 189.833,145.5 190.167,145.5 190.5,145.5C 190.315,146.17 189.981,146.17 189.5,145.5 Z"/></g>
<g><path style="opacity:0.018" fill="#434340" d="M 9.5,145.5 C 6.89914,149.771 3.56581,153.437 -0.5,156.5C -0.5,155.5 -0.5,154.5 -0.5,153.5C 2.56378,150.43 5.89711,147.763 9.5,145.5 Z"/></g>
<g><path style="opacity:1" fill="#47af2b" d="M 138.5,145.5 C 137.549,147.472 136.549,149.472 135.5,151.5C 119.479,167.521 103.479,183.521 87.5,199.5C 86.5,199.5 85.5,199.5 84.5,199.5C 81.997,198.629 79.3303,197.963 76.5,197.5C 92.5242,180.475 109.191,164.142 126.5,148.5C 128.033,149.431 129.7,150.098 131.5,150.5C 134.105,149.231 136.438,147.564 138.5,145.5 Z"/></g>
<g><path style="opacity:0.023" fill="#43443f" d="M 199.5,150.5 C 199.5,151.167 199.5,151.833 199.5,152.5C 183.524,167.477 168.19,183.144 153.5,199.5C 152.5,199.5 151.5,199.5 150.5,199.5C 166.5,182.833 182.833,166.5 199.5,150.5 Z"/></g>
<g><path style="opacity:0.018" fill="#444240" d="M 12.5,150.5 C 8.89529,155.774 4.56196,160.441 -0.5,164.5C -0.5,163.5 -0.5,162.5 -0.5,161.5C 3.5594,157.435 7.89273,153.768 12.5,150.5 Z"/></g>
<g><path style="opacity:0.018" fill="#444340" d="M 15.5,155.5 C 10.8928,161.776 5.55947,167.443 -0.5,172.5C -0.5,171.5 -0.5,170.5 -0.5,169.5C 4.5569,164.438 9.89024,159.772 15.5,155.5 Z"/></g>
<g><path style="opacity:0.031" fill="#444240" d="M 199.5,142.5 C 199.5,143.5 199.5,144.5 199.5,145.5C 181.167,163.167 163.167,181.167 145.5,199.5C 144.5,199.5 143.5,199.5 142.5,199.5C 149.167,192.5 155.833,185.5 162.5,178.5C 163.167,178.5 163.5,178.167 163.5,177.5C 164.167,177.5 164.5,177.167 164.5,176.5C 166.749,175.92 168.415,174.587 169.5,172.5C 170.167,172.5 170.5,172.167 170.5,171.5C 171.167,171.5 171.5,171.167 171.5,170.5C 172.167,170.5 172.5,170.167 172.5,169.5C 174.262,168.738 175.262,167.404 175.5,165.5C 176.167,165.5 176.5,165.167 176.5,164.5C 177.167,164.5 177.5,164.167 177.5,163.5C 178.167,163.5 178.5,163.167 178.5,162.5C 185.5,155.833 192.5,149.167 199.5,142.5 Z"/></g>
<g><path style="opacity:0.019" fill="#43443f" d="M 199.5,157.5 C 199.5,158.5 199.5,159.5 199.5,160.5C 186.167,173.167 173.167,186.167 160.5,199.5C 159.5,199.5 158.5,199.5 157.5,199.5C 171.167,185.167 185.167,171.167 199.5,157.5 Z"/></g>
<g><path style="opacity:0.018" fill="#434340" d="M 18.5,159.5 C 18.6495,160.552 18.4828,161.552 18,162.5C 11.9648,168.703 5.79812,174.703 -0.5,180.5C -0.5,179.5 -0.5,178.5 -0.5,177.5C 5.83333,171.5 12.1667,165.5 18.5,159.5 Z"/></g>
<g><path style="opacity:0.024" fill="#444240" d="M 22.5,164.5 C 15.2418,172.425 7.57513,180.092 -0.5,187.5C -0.5,186.833 -0.5,186.167 -0.5,185.5C 6.86133,178.137 14.528,171.137 22.5,164.5 Z"/></g>
<g><path style="opacity:0.018" fill="#43443f" d="M 199.5,165.5 C 199.5,166.5 199.5,167.5 199.5,168.5C 188.833,178.5 178.5,188.833 168.5,199.5C 167.5,199.5 166.5,199.5 165.5,199.5C 176.5,187.833 187.833,176.5 199.5,165.5 Z"/></g>
<g><path style="opacity:0.018" fill="#444340" d="M -0.5,195.5 C -0.5,194.5 -0.5,193.5 -0.5,192.5C 7.63162,184.869 15.6316,177.036 23.5,169C 24.3317,168.312 24.9984,168.479 25.5,169.5C 17.1457,178.521 8.479,187.188 -0.5,195.5 Z"/></g>
<g><path style="opacity:0.018" fill="#444340" d="M 29.5,172.5 C 21.5561,181.78 13.2228,190.78 4.5,199.5C 3.5,199.5 2.5,199.5 1.5,199.5C 10.2201,189.778 19.5534,180.778 29.5,172.5 Z"/></g>
<g><path style="opacity:0.018" fill="#43443f" d="M 199.5,173.5 C 199.5,174.5 199.5,175.5 199.5,176.5C 191.5,183.833 183.833,191.5 176.5,199.5C 175.5,199.5 174.5,199.5 173.5,199.5C 181.833,190.5 190.5,181.833 199.5,173.5 Z"/></g>
<g><path style="opacity:0.018" fill="#444340" d="M 12.5,199.5 C 11.5,199.5 10.5,199.5 9.5,199.5C 16.8123,191.521 24.479,183.854 32.5,176.5C 33.521,177.002 33.6877,177.668 33,178.5C 25.9641,185.368 19.1307,192.368 12.5,199.5 Z"/></g>
<g><path style="opacity:0.018" fill="#444340" d="M 20.5,199.5 C 19.5,199.5 18.5,199.5 17.5,199.5C 23.7973,192.702 30.2973,186.035 37,179.5C 37.5,180 38,180.5 38.5,181C 32.2972,187.035 26.2972,193.202 20.5,199.5 Z"/></g>
<g><path style="opacity:0.018" fill="#43443f" d="M 199.5,181.5 C 199.5,182.5 199.5,183.5 199.5,184.5C 194.167,189.167 189.167,194.167 184.5,199.5C 183.5,199.5 182.5,199.5 181.5,199.5C 187.167,193.167 193.167,187.167 199.5,181.5 Z"/></g>
<g><path style="opacity:0.023" fill="#444340" d="M 28.5,199.5 C 27.5,199.5 26.5,199.5 25.5,199.5C 30.5064,193.314 36.173,188.147 42.5,184C 37.5978,189.063 32.9311,194.23 28.5,199.5 Z"/></g>
<g><path style="opacity:0.019" fill="#444340" d="M 35.5,199.5 C 34.5,199.5 33.5,199.5 32.5,199.5C 36.6563,194.833 41.1563,190.5 46,186.5C 46.5,186.667 47,186.833 47.5,187C 43.2964,191.036 39.2964,195.202 35.5,199.5 Z"/></g>
<g><path style="opacity:0.017" fill="#444340" d="M 43.5,199.5 C 42.5,199.5 41.5,199.5 40.5,199.5C 43.5109,195.656 47.0109,192.322 51,189.5C 51.5,189.667 52,189.833 52.5,190C 49.2956,193.036 46.2956,196.203 43.5,199.5 Z"/></g>
<g><path style="opacity:0.008" fill="#43413f" d="M 145.5,189.5 C 146.833,190.167 146.833,190.167 145.5,189.5 Z"/></g>
<g><path style="opacity:0.019" fill="#43443f" d="M 199.5,189.5 C 199.5,190.5 199.5,191.5 199.5,192.5C 196.882,194.452 194.548,196.785 192.5,199.5C 191.5,199.5 190.5,199.5 189.5,199.5C 192.5,195.833 195.833,192.5 199.5,189.5 Z"/></g>
<g><path style="opacity:0.018" fill="#444340" d="M 57.5,191.5 C 55.9092,194.431 53.9092,197.098 51.5,199.5C 50.5,199.5 49.5,199.5 48.5,199.5C 50.8998,196.097 53.8998,193.43 57.5,191.5 Z"/></g>
<g><path style="opacity:0.018" fill="#434340" d="M 59.5,199.5 C 58.5,199.5 57.5,199.5 56.5,199.5C 57.9991,196.468 60.3324,194.968 63.5,195C 61.9586,196.371 60.6253,197.871 59.5,199.5 Z"/></g>
<g><path style="opacity:0.017" fill="#444240" d="M 143.5,190.5 C 144.167,190.5 144.833,190.5 145.5,190.5C 142.833,193.5 140.167,196.5 137.5,199.5C 136.5,199.5 135.5,199.5 134.5,199.5C 136.833,196.833 139.167,194.167 141.5,191.5C 142.492,191.672 143.158,191.338 143.5,190.5 Z"/></g>
<g><path style="opacity:0.008" fill="#43413f" d="M 131.5,195.5 C 132.833,196.167 132.833,196.167 131.5,195.5 Z"/></g>
<g><path style="opacity:0.018" fill="#434240" d="M 67.5,199.5 C 66.5,199.5 65.5,199.5 64.5,199.5C 65.4056,197.086 67.0722,196.253 69.5,197C 68.6195,197.708 67.9528,198.542 67.5,199.5 Z"/></g>
<g><path style="opacity:0.024" fill="#443f41" d="M 131.5,196.5 C 130.833,197.5 130.167,198.5 129.5,199.5C 128.5,199.5 127.5,199.5 126.5,199.5C 127.401,197.273 129.067,196.273 131.5,196.5 Z"/></g>
<g><path style="opacity:0.015" fill="#43443f" d="M 199.5,197.5 C 199.5,198.167 199.5,198.833 199.5,199.5C 198.5,199.5 197.5,199.5 196.5,199.5C 196.973,198.094 197.973,197.427 199.5,197.5 Z"/></g>
<g><path style="opacity:0.024" fill="#433d41" d="M 74.5,197.5 C 74.5,198.167 74.5,198.833 74.5,199.5C 73.5,199.5 72.5,199.5 71.5,199.5C 71.9731,198.094 72.9731,197.427 74.5,197.5 Z"/></g>
<g><path style="opacity:0.016" fill="#433f40" d="M 120.5,198.5 C 121.167,198.5 121.5,198.833 121.5,199.5C 121.167,199.167 120.833,198.833 120.5,198.5 Z"/></g>
</svg>
